<svg width="512" height="512" viewBox="0 0 512 512" class="w-full h-full" fill="none" xmlns="http://www.w3.org/2000/svg">
<rect width="512" height="512" fill="#0F766E"/>
<path d="M78.0293 434V410.621L108.273 405.426V192.604L78.0293 187.408V163.844H278.049V228.785H248.732L244.65 192.047H144.826V279.996H244.465V308.756H144.826V406.539H250.588L254.67 369.244H283.801V434H78.0293Z" fill="white"/>
<path d="M466.514 296.324H439.053L433.116 272.203C428.663 267.997 423.035 264.658 416.231 262.184C409.551 259.586 401.944 258.287 393.409 258.287C380.421 258.287 370.772 261.132 364.464 266.822C358.155 272.512 355.001 279.378 355.001 287.418C355.001 295.335 357.784 301.581 363.35 306.158C368.917 310.735 380.235 314.817 397.305 318.404C422.663 323.847 441.527 331.269 453.897 340.67C466.267 349.947 472.452 362.441 472.452 378.15C472.452 395.963 465.216 410.374 450.743 421.383C436.394 432.392 417.592 437.896 394.337 437.896C379.122 437.896 365.453 436.165 353.331 432.701C341.208 429.114 330.385 423.98 320.86 417.301L320.674 371.471H348.135L355.001 398.375C359.206 402.21 364.897 404.993 372.071 406.725C379.369 408.456 386.791 409.322 394.337 409.322C407.325 409.322 417.468 406.725 424.766 401.529C432.188 396.21 435.899 389.283 435.899 380.748C435.899 372.708 432.807 366.09 426.622 360.895C420.561 355.699 408.995 351.184 391.924 347.35C367.556 342.031 349.187 334.794 336.817 325.641C324.447 316.487 318.262 304.117 318.262 288.531C318.262 272.203 325.189 258.287 339.044 246.783C353.022 235.279 371.143 229.527 393.409 229.527C408.624 229.527 422.292 231.507 434.415 235.465C446.537 239.423 456.619 244.928 464.659 251.979L466.514 296.324Z" fill="white"/>
</svg>
